<?xml version="1.0"?>
<svg xmlns="http://www.w3.org/2000/svg" xmlns:xlink="http://www.w3.org/1999/xlink" width="512px" height="512px" viewBox="0 0 60 55" version="1.1" class=""><g><title class="active-path" style="fill:#FFFFFE" data-old_color="#010100">038 - Responsive Design</title><desc class="active-path" style="fill:#FFFFFE" data-old_color="#010100">Created with Sketch.</desc><defs class="active-path" style="fill:#FFFFFE" data-old_color="#010100"/><g id="Page-1" stroke="none" stroke-width="1" fill="none" fill-rule="evenodd"><g id="038---Responsive-Design" fill="#000000" fill-rule="nonzero"><path d="M18,52 L18,28 C18,26.3431458 16.6568542,25 15,25 L3,25 C1.34314575,25 2.02906125e-16,26.3431458 0,28 L0,52 C2.02906125e-16,53.6568542 1.34314575,55 3,55 L15,55 C16.6568542,55 18,53.6568542 18,52 Z M2,33 L16,33 L16,47 L2,47 L2,33 Z M3,27 L15,27 C15.5522847,27 16,27.4477153 16,28 L16,31 L2,31 L2,28 C2,27.4477153 2.44771525,27 3,27 Z M2,52 L2,49 L16,49 L16,52 C16,52.5522847 15.5522847,53 15,53 L3,53 C2.44771525,53 2,52.5522847 2,52 Z" id="Shape" data-original="#000000" class="active-path" data-old_color="#010100" fill="#FFFFFE"/><path d="M57,4.4408921e-16 L23,4.4408921e-16 C21.3431458,0 20,1.34314575 20,3 L20,28 C20,29.6568542 21.3431458,31 23,31 L35.942,31 C35.8456524,32.4590795 35.3434278,33.8621911 34.492,35.051 C32.9759902,35.333351 31.9209668,36.7190455 32.0521713,38.2555328 C32.1833758,39.7920201 33.458067,40.9787743 35,41 L45,41 C46.5421046,40.9792511 47.817243,39.7926488 47.948718,38.2560189 C48.080193,36.719389 47.0251657,35.3334163 45.509,35.051 C44.6566925,33.8625742 44.1540632,32.4592998 44.058,31 L57,31 C58.6568542,31 60,29.6568542 60,28 L60,3 C60,1.34314575 58.6568542,0 57,4.4408921e-16 Z M23,2 L57,2 C57.5522847,2 58,2.44771525 58,3 L58,23 L22,23 L22,3 C22,2.44771525 22.4477153,2 23,2 Z M45,39 L35,39 C34.4477153,39 34,38.5522847 34,38 C34,37.4477153 34.4477153,37 35,37 L45,37 C45.5522847,37 46,37.4477153 46,38 C46,38.5522847 45.5522847,39 45,39 Z M43.134,35 L36.866,35 C37.4891955,33.7511524 37.8612267,32.3921344 37.961,31 L42.039,31 C42.1387733,32.3921344 42.5108045,33.7511524 43.134,35 Z M57,29 L23,29 C22.4477153,29 22,28.5522847 22,28 L22,25 L58,25 L58,28 C58,28.5522847 57.5522847,29 57,29 Z" id="Shape" data-original="#000000" class="active-path" data-old_color="#010100" fill="#FFFFFE"/><circle id="Oval" cx="40" cy="27" r="1" data-original="#000000" class="active-path" data-old_color="#010100" fill="#FFFFFE"/><path d="M8,30 L10,30 C10.5522847,30 11,29.5522847 11,29 C11,28.4477153 10.5522847,28 10,28 L8,28 C7.44771525,28 7,28.4477153 7,29 C7,29.5522847 7.44771525,30 8,30 Z" id="Shape" data-original="#000000" class="active-path" data-old_color="#010100" fill="#FFFFFE"/><circle id="Oval" cx="9" cy="51" r="1" data-original="#000000" class="active-path" data-old_color="#010100" fill="#FFFFFE"/><path d="M12.293,35.293 L6,41.586 L6,38 C6,37.4477153 5.55228475,37 5,37 C4.44771525,37 4,37.4477153 4,38 L4,44 C4.00062624,44.1311244 4.0267796,44.2608723 4.077,44.382 C4.17849091,44.6269168 4.37308324,44.8215091 4.618,44.923 C4.73912771,44.9732204 4.86887556,44.9993738 5,45 L11,45 C11.5522847,45 12,44.5522847 12,44 C12,43.4477153 11.5522847,43 11,43 L7.414,43 L13.707,36.707 C14.0859722,36.3146211 14.0805524,35.6909152 13.6948186,35.3051814 C13.3090848,34.9194476 12.6853789,34.9140278 12.293,35.293 Z" id="Shape" data-original="#000000" class="active-path" data-old_color="#010100" fill="#FFFFFE"/><path d="M47,14 C47.2651948,13.9999434 47.5195073,13.8945494 47.707,13.707 L54,7.414 L54,11 C54,11.5522847 54.4477153,12 55,12 C55.5522847,12 56,11.5522847 56,11 L56,5 C55.9995299,4.59569172 55.7556468,4.23144559 55.382,4.077 C55.2608723,4.0267796 55.1311244,4.00062624 55,4 L49,4 C48.4477153,4 48,4.44771525 48,5 C48,5.55228475 48.4477153,6 49,6 L52.586,6 L46.293,12.293 C46.0070921,12.5789943 45.9215781,13.0090366 46.076322,13.3826546 C46.2310659,13.7562725 46.5956041,13.9999137 47,14 Z" id="Shape" data-original="#000000" class="active-path" data-old_color="#010100" fill="#FFFFFE"/><path d="M1,5 C1.55228475,5 2,4.55228475 2,4 L2,2 L4,2 C4.55228475,2 5,1.55228475 5,1 C5,0.44771525 4.55228475,0 4,0 L1,0 C0.44771525,0 6.76353751e-17,0.44771525 0,1 L0,4 C6.76353751e-17,4.55228475 0.44771525,5 1,5 Z" id="Shape" data-original="#000000" class="active-path" data-old_color="#010100" fill="#FFFFFE"/><path d="M59,50 C58.4477153,50 58,50.4477153 58,51 L58,53 L56,53 C55.4477153,53 55,53.4477153 55,54 C55,54.5522847 55.4477153,55 56,55 L59,55 C59.5522847,55 60,54.5522847 60,54 L60,51 C60,50.4477153 59.5522847,50 59,50 Z" id="Shape" data-original="#000000" class="active-path" data-old_color="#010100" fill="#FFFFFE"/><path d="M1,11 C1.55228475,11 2,10.5522847 2,10 L2,8 C2,7.44771525 1.55228475,7 1,7 C0.44771525,7 6.76353751e-17,7.44771525 0,8 L0,10 C6.76353751e-17,10.5522847 0.44771525,11 1,11 Z" id="Shape" data-original="#000000" class="active-path" data-old_color="#010100" fill="#FFFFFE"/><path d="M1,17 C1.55228475,17 2,16.5522847 2,16 L2,14 C2,13.4477153 1.55228475,13 1,13 C0.44771525,13 6.76353751e-17,13.4477153 0,14 L0,16 C6.76353751e-17,16.5522847 0.44771525,17 1,17 Z" id="Shape" data-original="#000000" class="active-path" data-old_color="#010100" fill="#FFFFFE"/><path d="M1,23 C1.55228475,23 2,22.5522847 2,22 L2,20 C2,19.4477153 1.55228475,19 1,19 C0.44771525,19 6.76353751e-17,19.4477153 0,20 L0,22 C6.76353751e-17,22.5522847 0.44771525,23 1,23 Z" id="Shape" data-original="#000000" class="active-path" data-old_color="#010100" fill="#FFFFFE"/><path d="M10,2 C10.5522847,2 11,1.55228475 11,1 C11,0.44771525 10.5522847,0 10,0 L8,0 C7.44771525,0 7,0.44771525 7,1 C7,1.55228475 7.44771525,2 8,2 L10,2 Z" id="Shape" data-original="#000000" class="active-path" data-old_color="#010100" fill="#FFFFFE"/><path d="M16,2 C16.5522847,2 17,1.55228475 17,1 C17,0.44771525 16.5522847,0 16,0 L14,0 C13.4477153,0 13,0.44771525 13,1 C13,1.55228475 13.4477153,2 14,2 L16,2 Z" id="Shape" data-original="#000000" class="active-path" data-old_color="#010100" fill="#FFFFFE"/><path d="M52,53 L50,53 C49.4477153,53 49,53.4477153 49,54 C49,54.5522847 49.4477153,55 50,55 L52,55 C52.5522847,55 53,54.5522847 53,54 C53,53.4477153 52.5522847,53 52,53 Z" id="Shape" data-original="#000000" class="active-path" data-old_color="#010100" fill="#FFFFFE"/><path d="M46,55 C46.5522847,55 47,54.5522847 47,54 C47,53.4477153 46.5522847,53 46,53 L44,53 C43.4477153,53 43,53.4477153 43,54 C43,54.5522847 43.4477153,55 44,55 L46,55 Z" id="Shape" data-original="#000000" class="active-path" data-old_color="#010100" fill="#FFFFFE"/><path d="M40,55 C40.5522847,55 41,54.5522847 41,54 C41,53.4477153 40.5522847,53 40,53 L38,53 C37.4477153,53 37,53.4477153 37,54 C37,54.5522847 37.4477153,55 38,55 L40,55 Z" id="Shape" data-original="#000000" class="active-path" data-old_color="#010100" fill="#FFFFFE"/><path d="M34,55 C34.5522847,55 35,54.5522847 35,54 C35,53.4477153 34.5522847,53 34,53 L32,53 C31.4477153,53 31,53.4477153 31,54 C31,54.5522847 31.4477153,55 32,55 L34,55 Z" id="Shape" data-original="#000000" class="active-path" data-old_color="#010100" fill="#FFFFFE"/><path d="M28,55 C28.5522847,55 29,54.5522847 29,54 C29,53.4477153 28.5522847,53 28,53 L26,53 C25.4477153,53 25,53.4477153 25,54 C25,54.5522847 25.4477153,55 26,55 L28,55 Z" id="Shape" data-original="#000000" class="active-path" data-old_color="#010100" fill="#FFFFFE"/><path d="M22,55 C22.5522847,55 23,54.5522847 23,54 C23,53.4477153 22.5522847,53 22,53 L20,53 C19.4477153,53 19,53.4477153 19,54 C19,54.5522847 19.4477153,55 20,55 L22,55 Z" id="Shape" data-original="#000000" class="active-path" data-old_color="#010100" fill="#FFFFFE"/><path d="M59,44 C58.4477153,44 58,44.4477153 58,45 L58,47 C58,47.5522847 58.4477153,48 59,48 C59.5522847,48 60,47.5522847 60,47 L60,45 C60,44.4477153 59.5522847,44 59,44 Z" id="Shape" data-original="#000000" class="active-path" data-old_color="#010100" fill="#FFFFFE"/><path d="M59,38 C58.4477153,38 58,38.4477153 58,39 L58,41 C58,41.5522847 58.4477153,42 59,42 C59.5522847,42 60,41.5522847 60,41 L60,39 C60,38.4477153 59.5522847,38 59,38 Z" id="Shape" data-original="#000000" class="active-path" data-old_color="#010100" fill="#FFFFFE"/><path d="M59,32 C58.4477153,32 58,32.4477153 58,33 L58,35 C58,35.5522847 58.4477153,36 59,36 C59.5522847,36 60,35.5522847 60,35 L60,33 C60,32.4477153 59.5522847,32 59,32 Z" id="Shape" data-original="#000000" class="active-path" data-old_color="#010100" fill="#FFFFFE"/><path d="M25,6 L26,6 C26.5522847,6 27,5.55228475 27,5 C27,4.44771525 26.5522847,4 26,4 L25,4 C24.4477153,4 24,4.44771525 24,5 C24,5.55228475 24.4477153,6 25,6 Z" id="Shape" data-original="#000000" class="active-path" data-old_color="#010100" fill="#FFFFFE"/><path d="M30,6 L38,6 C38.5522847,6 39,5.55228475 39,5 C39,4.44771525 38.5522847,4 38,4 L30,4 C29.4477153,4 29,4.44771525 29,5 C29,5.55228475 29.4477153,6 30,6 Z" id="Shape" data-original="#000000" class="active-path" data-old_color="#010100" fill="#FFFFFE"/></g></g></g> </svg>
